<mxfile host="65bd71144e">
    <diagram id="7uSqJq3VKvHVyxkCwm46" name="Page-1">
        <mxGraphModel dx="2733" dy="1648" grid="1" gridSize="22" guides="1" tooltips="1" connect="1" arrows="1" fold="1" page="1" pageScale="5" pageWidth="1100" pageHeight="1700" math="0" shadow="0">
            <root>
                <mxCell id="0"/>
                <mxCell id="1" parent="0"/>
                <mxCell id="2" value="MONGO" style="rounded=0;whiteSpace=wrap;html=1;" vertex="1" parent="1">
                    <mxGeometry x="924" y="792" width="110" height="176" as="geometry"/>
                </mxCell>
                <mxCell id="3" value="EXPRESS" style="rounded=0;whiteSpace=wrap;html=1;" vertex="1" parent="1">
                    <mxGeometry x="1584" y="792" width="90" height="180" as="geometry"/>
                </mxCell>
                <mxCell id="4" value="REACT" style="rounded=0;whiteSpace=wrap;html=1;" vertex="1" parent="1">
                    <mxGeometry x="2420" y="792" width="90" height="185" as="geometry"/>
                </mxCell>
            </root>
        </mxGraphModel>
    </diagram>
</mxfile>